<?xml version="1.0" standalone="no"?>
<!DOCTYPE svg PUBLIC "-//W3C//DTD SVG 1.1//EN" "http://www.w3.org/Graphics/SVG/1.1/DTD/svg11.dtd">
<svg version="1.1" width="1200" height="374" onload="init(evt)" viewBox="0 0 1200 374" xmlns="http://www.w3.org/2000/svg" xmlns:xlink="http://www.w3.org/1999/xlink">
<!-- Flame graph stack visualization. See https://github.com/brendangregg/FlameGraph for latest version, and http://www.brendangregg.com/flamegraphs.html for examples. -->
<!-- NOTES:  -->
<defs>
	<linearGradient id="background" y1="0" y2="1" x1="0" x2="0" >
		<stop stop-color="#eeeeee" offset="5%" />
		<stop stop-color="#eeeeb0" offset="95%" />
	</linearGradient>
</defs>
<style type="text/css">
	text { font-family:Verdana; font-size:12px; fill:rgb(0,0,0); }
	#search, #ignorecase { opacity:0.1; cursor:pointer; }
	#search:hover, #search.show, #ignorecase:hover, #ignorecase.show { opacity:1; }
	#subtitle { text-anchor:middle; font-color:rgb(160,160,160); }
	#title { text-anchor:middle; font-size:17px}
	#unzoom { cursor:pointer; }
	#frames > *:hover { stroke:black; stroke-width:0.5; cursor:pointer; }
	.hide { display:none; }
	.parent { opacity:0.5; }
</style>
<script type="text/ecmascript">
<![CDATA[
	"use strict";
	var details, searchbtn, unzoombtn, matchedtxt, svg, searching, currentSearchTerm, ignorecase, ignorecaseBtn;
	function init(evt) {
		details = document.getElementById("details").firstChild;
		searchbtn = document.getElementById("search");
		ignorecaseBtn = document.getElementById("ignorecase");
		unzoombtn = document.getElementById("unzoom");
		matchedtxt = document.getElementById("matched");
		svg = document.getElementsByTagName("svg")[0];
		searching = 0;
		currentSearchTerm = null;
	}

	window.addEventListener("click", function(e) {
		var target = find_group(e.target);
		if (target) {
			if (target.nodeName == "a") {
				if (e.ctrlKey === false) return;
				e.preventDefault();
			}
			if (target.classList.contains("parent")) unzoom();
			zoom(target);
		}
		else if (e.target.id == "unzoom") unzoom();
		else if (e.target.id == "search") search_prompt();
		else if (e.target.id == "ignorecase") toggle_ignorecase();
	}, false)

	// mouse-over for info
	// show
	window.addEventListener("mouseover", function(e) {
		var target = find_group(e.target);
		if (target) details.nodeValue = "Function: " + g_to_text(target);
	}, false)

	// clear
	window.addEventListener("mouseout", function(e) {
		var target = find_group(e.target);
		if (target) details.nodeValue = ' ';
	}, false)

	// ctrl-F for search
	window.addEventListener("keydown",function (e) {
		if (e.keyCode === 114 || (e.ctrlKey && e.keyCode === 70)) {
			e.preventDefault();
			search_prompt();
		}
	}, false)

	// ctrl-I to toggle case-sensitive search
	window.addEventListener("keydown",function (e) {
		if (e.ctrlKey && e.keyCode === 73) {
			e.preventDefault();
			toggle_ignorecase();
		}
	}, false)

	// functions
	function find_child(node, selector) {
		var children = node.querySelectorAll(selector);
		if (children.length) return children[0];
		return;
	}
	function find_group(node) {
		var parent = node.parentElement;
		if (!parent) return;
		if (parent.id == "frames") return node;
		return find_group(parent);
	}
	function orig_save(e, attr, val) {
		if (e.attributes["_orig_" + attr] != undefined) return;
		if (e.attributes[attr] == undefined) return;
		if (val == undefined) val = e.attributes[attr].value;
		e.setAttribute("_orig_" + attr, val);
	}
	function orig_load(e, attr) {
		if (e.attributes["_orig_"+attr] == undefined) return;
		e.attributes[attr].value = e.attributes["_orig_" + attr].value;
		e.removeAttribute("_orig_"+attr);
	}
	function g_to_text(e) {
		var text = find_child(e, "title").firstChild.nodeValue;
		return (text)
	}
	function g_to_func(e) {
		var func = g_to_text(e);
		// if there's any manipulation we want to do to the function
		// name before it's searched, do it here before returning.
		return (func);
	}
	function update_text(e) {
		var r = find_child(e, "rect");
		var t = find_child(e, "text");
		var w = parseFloat(r.attributes.width.value) -3;
		var txt = find_child(e, "title").textContent.replace(/\([^(]*\)$/,"");
		t.attributes.x.value = parseFloat(r.attributes.x.value) + 3;

		// Smaller than this size won't fit anything
		if (w < 2 * 12 * 0.59) {
			t.textContent = "";
			return;
		}

		t.textContent = txt;
		// Fit in full text width
		if (/^ *$/.test(txt) || t.getSubStringLength(0, txt.length) < w)
			return;

		for (var x = txt.length - 2; x > 0; x--) {
			if (t.getSubStringLength(0, x + 2) <= w) {
				t.textContent = txt.substring(0, x) + "..";
				return;
			}
		}
		t.textContent = "";
	}

	// zoom
	function zoom_reset(e) {
		if (e.attributes != undefined) {
			orig_load(e, "x");
			orig_load(e, "width");
		}
		if (e.childNodes == undefined) return;
		for (var i = 0, c = e.childNodes; i < c.length; i++) {
			zoom_reset(c[i]);
		}
	}
	function zoom_child(e, x, ratio) {
		if (e.attributes != undefined) {
			if (e.attributes.x != undefined) {
				orig_save(e, "x");
				e.attributes.x.value = (parseFloat(e.attributes.x.value) - x - 10) * ratio + 10;
				if (e.tagName == "text")
					e.attributes.x.value = find_child(e.parentNode, "rect[x]").attributes.x.value + 3;
			}
			if (e.attributes.width != undefined) {
				orig_save(e, "width");
				e.attributes.width.value = parseFloat(e.attributes.width.value) * ratio;
			}
		}

		if (e.childNodes == undefined) return;
		for (var i = 0, c = e.childNodes; i < c.length; i++) {
			zoom_child(c[i], x - 10, ratio);
		}
	}
	function zoom_parent(e) {
		if (e.attributes) {
			if (e.attributes.x != undefined) {
				orig_save(e, "x");
				e.attributes.x.value = 10;
			}
			if (e.attributes.width != undefined) {
				orig_save(e, "width");
				e.attributes.width.value = parseInt(svg.width.baseVal.value) - (10 * 2);
			}
		}
		if (e.childNodes == undefined) return;
		for (var i = 0, c = e.childNodes; i < c.length; i++) {
			zoom_parent(c[i]);
		}
	}
	function zoom(node) {
		var attr = find_child(node, "rect").attributes;
		var width = parseFloat(attr.width.value);
		var xmin = parseFloat(attr.x.value);
		var xmax = parseFloat(xmin + width);
		var ymin = parseFloat(attr.y.value);
		var ratio = (svg.width.baseVal.value - 2 * 10) / width;

		// XXX: Workaround for JavaScript float issues (fix me)
		var fudge = 0.0001;

		unzoombtn.classList.remove("hide");

		var el = document.getElementById("frames").children;
		for (var i = 0; i < el.length; i++) {
			var e = el[i];
			var a = find_child(e, "rect").attributes;
			var ex = parseFloat(a.x.value);
			var ew = parseFloat(a.width.value);
			var upstack;
			// Is it an ancestor
			if (0 == 0) {
				upstack = parseFloat(a.y.value) > ymin;
			} else {
				upstack = parseFloat(a.y.value) < ymin;
			}
			if (upstack) {
				// Direct ancestor
				if (ex <= xmin && (ex+ew+fudge) >= xmax) {
					e.classList.add("parent");
					zoom_parent(e);
					update_text(e);
				}
				// not in current path
				else
					e.classList.add("hide");
			}
			// Children maybe
			else {
				// no common path
				if (ex < xmin || ex + fudge >= xmax) {
					e.classList.add("hide");
				}
				else {
					zoom_child(e, xmin, ratio);
					update_text(e);
				}
			}
		}
		search();
	}
	function unzoom() {
		unzoombtn.classList.add("hide");
		var el = document.getElementById("frames").children;
		for(var i = 0; i < el.length; i++) {
			el[i].classList.remove("parent");
			el[i].classList.remove("hide");
			zoom_reset(el[i]);
			update_text(el[i]);
		}
		search();
	}

	// search
	function toggle_ignorecase() {
		ignorecase = !ignorecase;
		if (ignorecase) {
			ignorecaseBtn.classList.add("show");
		} else {
			ignorecaseBtn.classList.remove("show");
		}
		reset_search();
		search();
	}
	function reset_search() {
		var el = document.querySelectorAll("#frames rect");
		for (var i = 0; i < el.length; i++) {
			orig_load(el[i], "fill")
		}
	}
	function search_prompt() {
		if (!searching) {
			var term = prompt("Enter a search term (regexp " +
			    "allowed, eg: ^ext4_)"
			    + (ignorecase ? ", ignoring case" : "")
			    + "\nPress Ctrl-i to toggle case sensitivity", "");
			if (term != null) {
				currentSearchTerm = term;
				search();
			}
		} else {
			reset_search();
			searching = 0;
			currentSearchTerm = null;
			searchbtn.classList.remove("show");
			searchbtn.firstChild.nodeValue = "Search"
			matchedtxt.classList.add("hide");
			matchedtxt.firstChild.nodeValue = ""
		}
	}
	function search(term) {
		if (currentSearchTerm === null) return;
		var term = currentSearchTerm;

		var re = new RegExp(term, ignorecase ? 'i' : '');
		var el = document.getElementById("frames").children;
		var matches = new Object();
		var maxwidth = 0;
		for (var i = 0; i < el.length; i++) {
			var e = el[i];
			var func = g_to_func(e);
			var rect = find_child(e, "rect");
			if (func == null || rect == null)
				continue;

			// Save max width. Only works as we have a root frame
			var w = parseFloat(rect.attributes.width.value);
			if (w > maxwidth)
				maxwidth = w;

			if (func.match(re)) {
				// highlight
				var x = parseFloat(rect.attributes.x.value);
				orig_save(rect, "fill");
				rect.attributes.fill.value = "rgb(230,0,230)";

				// remember matches
				if (matches[x] == undefined) {
					matches[x] = w;
				} else {
					if (w > matches[x]) {
						// overwrite with parent
						matches[x] = w;
					}
				}
				searching = 1;
			}
		}
		if (!searching)
			return;

		searchbtn.classList.add("show");
		searchbtn.firstChild.nodeValue = "Reset Search";

		// calculate percent matched, excluding vertical overlap
		var count = 0;
		var lastx = -1;
		var lastw = 0;
		var keys = Array();
		for (k in matches) {
			if (matches.hasOwnProperty(k))
				keys.push(k);
		}
		// sort the matched frames by their x location
		// ascending, then width descending
		keys.sort(function(a, b){
			return a - b;
		});
		// Step through frames saving only the biggest bottom-up frames
		// thanks to the sort order. This relies on the tree property
		// where children are always smaller than their parents.
		var fudge = 0.0001;	// JavaScript floating point
		for (var k in keys) {
			var x = parseFloat(keys[k]);
			var w = matches[keys[k]];
			if (x >= lastx + lastw - fudge) {
				count += w;
				lastx = x;
				lastw = w;
			}
		}
		// display matched percent
		matchedtxt.classList.remove("hide");
		var pct = 100 * count / maxwidth;
		if (pct != 100) pct = pct.toFixed(1)
		matchedtxt.firstChild.nodeValue = "Matched: " + pct + "%";
	}
]]>
</script>
<rect x="0.0" y="0" width="1200.0" height="374.0" fill="url(#background)"  />
<text id="title" x="600.00" y="24" >Flame Graph</text>
<text id="details" x="10.00" y="357" > </text>
<text id="unzoom" x="10.00" y="24" class="hide">Reset Zoom</text>
<text id="search" x="1090.00" y="24" >Search</text>
<text id="ignorecase" x="1174.00" y="24" >ic</text>
<text id="matched" x="1090.00" y="357" > </text>
<g id="frames">
<g >
<title>blk_done_softirq (1 samples, 0.02%)</title><rect x="1167.0" y="165" width="0.2" height="15.0" fill="rgb(234,24,5)" rx="2" ry="2" />
<text  x="1169.99" y="175.5" ></text>
</g>
<g >
<title>release_pages (6 samples, 0.10%)</title><rect x="1188.8" y="101" width="1.2" height="15.0" fill="rgb(226,189,43)" rx="2" ry="2" />
<text  x="1191.79" y="111.5" ></text>
</g>
<g >
<title>mem_cgroup_try_charge (1 samples, 0.02%)</title><rect x="1174.9" y="181" width="0.2" height="15.0" fill="rgb(225,113,38)" rx="2" ry="2" />
<text  x="1177.86" y="191.5" ></text>
</g>
<g >
<title>apic_timer_interrupt (3 samples, 0.05%)</title><rect x="1166.4" y="229" width="0.6" height="15.0" fill="rgb(219,222,5)" rx="2" ry="2" />
<text  x="1169.39" y="239.5" ></text>
</g>
<g >
<title>do_group_exit (7 samples, 0.12%)</title><rect x="1188.6" y="245" width="1.4" height="15.0" fill="rgb(250,145,25)" rx="2" ry="2" />
<text  x="1191.59" y="255.5" ></text>
</g>
<g >
<title>rand@plt (4 samples, 0.07%)</title><rect x="1187.8" y="261" width="0.8" height="15.0" fill="rgb(227,40,24)" rx="2" ry="2" />
<text  x="1190.78" y="271.5" ></text>
</g>
<g >
<title>do_page_fault (36 samples, 0.62%)</title><rect x="1168.2" y="229" width="7.3" height="15.0" fill="rgb(250,228,23)" rx="2" ry="2" />
<text  x="1171.20" y="239.5" ></text>
</g>
<g >
<title>apic_timer_interrupt (1 samples, 0.02%)</title><rect x="61.7" y="245" width="0.2" height="15.0" fill="rgb(234,122,22)" rx="2" ry="2" />
<text  x="64.66" y="255.5" ></text>
</g>
<g >
<title>handle_mm_fault (15 samples, 0.26%)</title><rect x="1172.2" y="197" width="3.1" height="15.0" fill="rgb(246,110,33)" rx="2" ry="2" />
<text  x="1175.24" y="207.5" ></text>
</g>
<g >
<title>__do_page_fault (36 samples, 0.62%)</title><rect x="1168.2" y="213" width="7.3" height="15.0" fill="rgb(241,157,34)" rx="2" ry="2" />
<text  x="1171.20" y="223.5" ></text>
</g>
<g >
<title>__handle_mm_fault (11 samples, 0.19%)</title><rect x="1172.6" y="181" width="2.3" height="15.0" fill="rgb(219,108,13)" rx="2" ry="2" />
<text  x="1175.64" y="191.5" ></text>
</g>
<g >
<title>free_pcp_prepare (1 samples, 0.02%)</title><rect x="1189.2" y="69" width="0.2" height="15.0" fill="rgb(231,47,52)" rx="2" ry="2" />
<text  x="1192.19" y="79.5" ></text>
</g>
<g >
<title>lru_cache_add_active_or_unevictable (2 samples, 0.03%)</title><rect x="1174.5" y="165" width="0.4" height="15.0" fill="rgb(253,86,14)" rx="2" ry="2" />
<text  x="1177.46" y="175.5" ></text>
</g>
<g >
<title>Prog (5,847 samples, 100.00%)</title><rect x="10.0" y="309" width="1180.0" height="15.0" fill="rgb(254,23,18)" rx="2" ry="2" />
<text  x="13.00" y="319.5" >Prog</text>
</g>
<g >
<title>rand (59 samples, 1.01%)</title><rect x="1175.9" y="261" width="11.9" height="15.0" fill="rgb(218,58,21)" rx="2" ry="2" />
<text  x="1178.87" y="271.5" ></text>
</g>
<g >
<title>prepare_exit_to_usermode (5 samples, 0.09%)</title><rect x="1167.2" y="213" width="1.0" height="15.0" fill="rgb(217,164,41)" rx="2" ry="2" />
<text  x="1170.20" y="223.5" ></text>
</g>
<g >
<title>irq_exit (3 samples, 0.05%)</title><rect x="1166.4" y="197" width="0.6" height="15.0" fill="rgb(241,57,31)" rx="2" ry="2" />
<text  x="1169.39" y="207.5" ></text>
</g>
<g >
<title>tlb_flush_mmu_free (6 samples, 0.10%)</title><rect x="1188.8" y="133" width="1.2" height="15.0" fill="rgb(220,189,12)" rx="2" ry="2" />
<text  x="1191.79" y="143.5" ></text>
</g>
<g >
<title>smp_apic_timer_interrupt (1 samples, 0.02%)</title><rect x="61.7" y="229" width="0.2" height="15.0" fill="rgb(239,152,10)" rx="2" ry="2" />
<text  x="64.66" y="239.5" ></text>
</g>
<g >
<title>alloc_pages_vma (4 samples, 0.07%)</title><rect x="1173.7" y="165" width="0.8" height="15.0" fill="rgb(212,98,53)" rx="2" ry="2" />
<text  x="1176.65" y="175.5" ></text>
</g>
<g >
<title>swapgs_restore_regs_and_return_to_usermode (1 samples, 0.02%)</title><rect x="61.9" y="245" width="0.2" height="15.0" fill="rgb(225,7,0)" rx="2" ry="2" />
<text  x="64.87" y="255.5" ></text>
</g>
<g >
<title>unmap_single_vma (7 samples, 0.12%)</title><rect x="1188.6" y="165" width="1.4" height="15.0" fill="rgb(210,74,42)" rx="2" ry="2" />
<text  x="1191.59" y="175.5" ></text>
</g>
<g >
<title>call_function_single_interrupt (1 samples, 0.02%)</title><rect x="1167.0" y="229" width="0.2" height="15.0" fill="rgb(216,158,0)" rx="2" ry="2" />
<text  x="1169.99" y="239.5" ></text>
</g>
<g >
<title>smp_apic_timer_interrupt (3 samples, 0.05%)</title><rect x="1166.4" y="213" width="0.6" height="15.0" fill="rgb(215,81,32)" rx="2" ry="2" />
<text  x="1169.39" y="223.5" ></text>
</g>
<g >
<title>__random (258 samples, 4.41%)</title><rect x="10.0" y="261" width="52.1" height="15.0" fill="rgb(214,132,3)" rx="2" ry="2" />
<text  x="13.00" y="271.5" >__ran..</text>
</g>
<g >
<title>__lru_cache_add (2 samples, 0.03%)</title><rect x="1174.5" y="149" width="0.4" height="15.0" fill="rgb(209,219,23)" rx="2" ry="2" />
<text  x="1177.46" y="159.5" ></text>
</g>
<g >
<title>swapgs_restore_regs_and_return_to_usermode (2 samples, 0.03%)</title><rect x="1175.5" y="245" width="0.4" height="15.0" fill="rgb(213,22,37)" rx="2" ry="2" />
<text  x="1178.47" y="255.5" ></text>
</g>
<g >
<title>unmap_page_range (7 samples, 0.12%)</title><rect x="1188.6" y="149" width="1.4" height="15.0" fill="rgb(232,54,27)" rx="2" ry="2" />
<text  x="1191.59" y="159.5" ></text>
</g>
<g >
<title>scsi_run_queue (1 samples, 0.02%)</title><rect x="1167.0" y="85" width="0.2" height="15.0" fill="rgb(236,25,22)" rx="2" ry="2" />
<text  x="1169.99" y="95.5" ></text>
</g>
<g >
<title>smp_call_function_single_interrupt (1 samples, 0.02%)</title><rect x="1167.0" y="213" width="0.2" height="15.0" fill="rgb(208,48,28)" rx="2" ry="2" />
<text  x="1169.99" y="223.5" ></text>
</g>
<g >
<title>scsi_end_request (1 samples, 0.02%)</title><rect x="1167.0" y="101" width="0.2" height="15.0" fill="rgb(208,106,2)" rx="2" ry="2" />
<text  x="1169.99" y="111.5" ></text>
</g>
<g >
<title>__libc_start_main (5,840 samples, 99.88%)</title><rect x="10.0" y="277" width="1178.6" height="15.0" fill="rgb(230,40,48)" rx="2" ry="2" />
<text  x="13.00" y="287.5" >__libc_start_main</text>
</g>
<g >
<title>get_page_from_freelist (2 samples, 0.03%)</title><rect x="1174.1" y="133" width="0.4" height="15.0" fill="rgb(219,208,16)" rx="2" ry="2" />
<text  x="1177.06" y="143.5" ></text>
</g>
<g >
<title>blk_run_queue (1 samples, 0.02%)</title><rect x="1167.0" y="69" width="0.2" height="15.0" fill="rgb(212,106,15)" rx="2" ry="2" />
<text  x="1169.99" y="79.5" ></text>
</g>
<g >
<title>mmput (7 samples, 0.12%)</title><rect x="1188.6" y="213" width="1.4" height="15.0" fill="rgb(240,215,34)" rx="2" ry="2" />
<text  x="1191.59" y="223.5" ></text>
</g>
<g >
<title>__softirqentry_text_start (3 samples, 0.05%)</title><rect x="1166.4" y="181" width="0.6" height="15.0" fill="rgb(217,39,17)" rx="2" ry="2" />
<text  x="1169.39" y="191.5" ></text>
</g>
<g >
<title>rcu_all_qs (1 samples, 0.02%)</title><rect x="1175.3" y="197" width="0.2" height="15.0" fill="rgb(234,144,45)" rx="2" ry="2" />
<text  x="1178.27" y="207.5" ></text>
</g>
<g >
<title>__softirqentry_text_start (1 samples, 0.02%)</title><rect x="1167.0" y="181" width="0.2" height="15.0" fill="rgb(205,107,45)" rx="2" ry="2" />
<text  x="1169.99" y="191.5" ></text>
</g>
<g >
<title>_raw_spin_lock (1 samples, 0.02%)</title><rect x="1173.5" y="165" width="0.2" height="15.0" fill="rgb(221,0,33)" rx="2" ry="2" />
<text  x="1176.45" y="175.5" ></text>
</g>
<g >
<title>swapgs_restore_regs_and_return_to_usermode (1 samples, 0.02%)</title><rect x="92.3" y="245" width="0.2" height="15.0" fill="rgb(217,46,34)" rx="2" ry="2" />
<text  x="95.34" y="255.5" ></text>
</g>
<g >
<title>pagevec_lru_move_fn (2 samples, 0.03%)</title><rect x="1174.5" y="133" width="0.4" height="15.0" fill="rgb(228,177,3)" rx="2" ry="2" />
<text  x="1177.46" y="143.5" ></text>
</g>
<g >
<title>scsi_request_fn (1 samples, 0.02%)</title><rect x="1167.0" y="37" width="0.2" height="15.0" fill="rgb(236,209,32)" rx="2" ry="2" />
<text  x="1169.99" y="47.5" ></text>
</g>
<g >
<title>sys_exit_group (7 samples, 0.12%)</title><rect x="1188.6" y="261" width="1.4" height="15.0" fill="rgb(254,92,35)" rx="2" ry="2" />
<text  x="1191.59" y="271.5" ></text>
</g>
<g >
<title>DGEMM (5,153 samples, 88.13%)</title><rect x="128.3" y="245" width="1039.9" height="15.0" fill="rgb(250,21,0)" rx="2" ry="2" />
<text  x="131.26" y="255.5" >DGEMM</text>
</g>
<g >
<title>prepare_exit_to_usermode (2 samples, 0.03%)</title><rect x="1175.5" y="229" width="0.4" height="15.0" fill="rgb(245,60,18)" rx="2" ry="2" />
<text  x="1178.47" y="239.5" ></text>
</g>
<g >
<title>scsi_finish_command (1 samples, 0.02%)</title><rect x="1167.0" y="133" width="0.2" height="15.0" fill="rgb(250,130,17)" rx="2" ry="2" />
<text  x="1169.99" y="143.5" ></text>
</g>
<g >
<title>exit_to_usermode_loop (1 samples, 0.02%)</title><rect x="92.3" y="213" width="0.2" height="15.0" fill="rgb(217,73,21)" rx="2" ry="2" />
<text  x="95.34" y="223.5" ></text>
</g>
<g >
<title>main (5,368 samples, 91.81%)</title><rect x="92.5" y="261" width="1083.4" height="15.0" fill="rgb(223,151,27)" rx="2" ry="2" />
<text  x="95.54" y="271.5" >main</text>
</g>
<g >
<title>pfn_pte (1 samples, 0.02%)</title><rect x="1175.1" y="181" width="0.2" height="15.0" fill="rgb(232,180,11)" rx="2" ry="2" />
<text  x="1178.07" y="191.5" ></text>
</g>
<g >
<title>page_fault (36 samples, 0.62%)</title><rect x="1168.2" y="245" width="7.3" height="15.0" fill="rgb(236,138,8)" rx="2" ry="2" />
<text  x="1171.20" y="255.5" ></text>
</g>
<g >
<title>scsi_io_completion (1 samples, 0.02%)</title><rect x="1167.0" y="117" width="0.2" height="15.0" fill="rgb(232,225,46)" rx="2" ry="2" />
<text  x="1169.99" y="127.5" ></text>
</g>
<g >
<title>do_syscall_64 (7 samples, 0.12%)</title><rect x="1188.6" y="277" width="1.4" height="15.0" fill="rgb(240,19,3)" rx="2" ry="2" />
<text  x="1191.59" y="287.5" ></text>
</g>
<g >
<title>_raw_spin_unlock_irqrestore (2 samples, 0.03%)</title><rect x="1174.5" y="117" width="0.4" height="15.0" fill="rgb(230,61,13)" rx="2" ry="2" />
<text  x="1177.46" y="127.5" ></text>
</g>
<g >
<title>exit_to_usermode_loop (2 samples, 0.03%)</title><rect x="1175.5" y="213" width="0.4" height="15.0" fill="rgb(247,52,8)" rx="2" ry="2" />
<text  x="1178.47" y="223.5" ></text>
</g>
<g >
<title>entry_SYSCALL_64_after_hwframe (7 samples, 0.12%)</title><rect x="1188.6" y="293" width="1.4" height="15.0" fill="rgb(248,110,6)" rx="2" ry="2" />
<text  x="1191.59" y="303.5" ></text>
</g>
<g >
<title>down_read_trylock (1 samples, 0.02%)</title><rect x="1172.0" y="197" width="0.2" height="15.0" fill="rgb(238,54,35)" rx="2" ry="2" />
<text  x="1175.04" y="207.5" ></text>
</g>
<g >
<title>__alloc_pages_nodemask (4 samples, 0.07%)</title><rect x="1173.7" y="149" width="0.8" height="15.0" fill="rgb(226,99,41)" rx="2" ry="2" />
<text  x="1176.65" y="159.5" ></text>
</g>
<g >
<title>prepare_exit_to_usermode (1 samples, 0.02%)</title><rect x="61.9" y="229" width="0.2" height="15.0" fill="rgb(241,198,19)" rx="2" ry="2" />
<text  x="64.87" y="239.5" ></text>
</g>
<g >
<title>scsi_softirq_done (1 samples, 0.02%)</title><rect x="1167.0" y="149" width="0.2" height="15.0" fill="rgb(210,17,15)" rx="2" ry="2" />
<text  x="1169.99" y="159.5" ></text>
</g>
<g >
<title>unmap_vmas (7 samples, 0.12%)</title><rect x="1188.6" y="181" width="1.4" height="15.0" fill="rgb(225,93,39)" rx="2" ry="2" />
<text  x="1191.59" y="191.5" ></text>
</g>
<g >
<title>uncharge_page (2 samples, 0.03%)</title><rect x="1189.4" y="69" width="0.4" height="15.0" fill="rgb(232,175,24)" rx="2" ry="2" />
<text  x="1192.39" y="79.5" ></text>
</g>
<g >
<title>prepare_exit_to_usermode (1 samples, 0.02%)</title><rect x="92.3" y="229" width="0.2" height="15.0" fill="rgb(209,147,12)" rx="2" ry="2" />
<text  x="95.34" y="239.5" ></text>
</g>
<g >
<title>__mod_node_page_state (2 samples, 0.03%)</title><rect x="1173.0" y="165" width="0.5" height="15.0" fill="rgb(217,206,1)" rx="2" ry="2" />
<text  x="1176.05" y="175.5" ></text>
</g>
<g >
<title>free_pages_and_swap_cache (6 samples, 0.10%)</title><rect x="1188.8" y="117" width="1.2" height="15.0" fill="rgb(215,173,34)" rx="2" ry="2" />
<text  x="1191.79" y="127.5" ></text>
</g>
<g >
<title>free_unref_page_list (3 samples, 0.05%)</title><rect x="1188.8" y="85" width="0.6" height="15.0" fill="rgb(206,29,52)" rx="2" ry="2" />
<text  x="1191.79" y="95.5" ></text>
</g>
<g >
<title>irq_exit (1 samples, 0.02%)</title><rect x="1167.0" y="197" width="0.2" height="15.0" fill="rgb(253,214,49)" rx="2" ry="2" />
<text  x="1169.99" y="207.5" ></text>
</g>
<g >
<title>exit_to_usermode_loop (5 samples, 0.09%)</title><rect x="1167.2" y="197" width="1.0" height="15.0" fill="rgb(232,182,33)" rx="2" ry="2" />
<text  x="1170.20" y="207.5" ></text>
</g>
<g >
<title>exit_to_usermode_loop (1 samples, 0.02%)</title><rect x="61.9" y="213" width="0.2" height="15.0" fill="rgb(228,36,5)" rx="2" ry="2" />
<text  x="64.87" y="223.5" ></text>
</g>
<g >
<title>uncharge_page (1 samples, 0.02%)</title><rect x="1189.8" y="85" width="0.2" height="15.0" fill="rgb(224,53,31)" rx="2" ry="2" />
<text  x="1192.80" y="95.5" ></text>
</g>
<g >
<title>swapgs_restore_regs_and_return_to_usermode (1 samples, 0.02%)</title><rect x="1187.6" y="245" width="0.2" height="15.0" fill="rgb(210,174,46)" rx="2" ry="2" />
<text  x="1190.58" y="255.5" ></text>
</g>
<g >
<title>exit_to_usermode_loop (1 samples, 0.02%)</title><rect x="1187.6" y="213" width="0.2" height="15.0" fill="rgb(246,27,15)" rx="2" ry="2" />
<text  x="1190.58" y="223.5" ></text>
</g>
<g >
<title>irq_exit (1 samples, 0.02%)</title><rect x="61.7" y="213" width="0.2" height="15.0" fill="rgb(233,147,6)" rx="2" ry="2" />
<text  x="64.66" y="223.5" ></text>
</g>
<g >
<title>all (5,847 samples, 100%)</title><rect x="10.0" y="325" width="1180.0" height="15.0" fill="rgb(232,228,37)" rx="2" ry="2" />
<text  x="13.00" y="335.5" ></text>
</g>
<g >
<title>mem_cgroup_uncharge_list (2 samples, 0.03%)</title><rect x="1189.4" y="85" width="0.4" height="15.0" fill="rgb(224,220,4)" rx="2" ry="2" />
<text  x="1192.39" y="95.5" ></text>
</g>
<g >
<title>swapgs_restore_regs_and_return_to_usermode (5 samples, 0.09%)</title><rect x="1167.2" y="229" width="1.0" height="15.0" fill="rgb(213,53,6)" rx="2" ry="2" />
<text  x="1170.20" y="239.5" ></text>
</g>
<g >
<title>__blk_run_queue (1 samples, 0.02%)</title><rect x="1167.0" y="53" width="0.2" height="15.0" fill="rgb(224,57,21)" rx="2" ry="2" />
<text  x="1169.99" y="63.5" ></text>
</g>
<g >
<title>[unknown] (5,840 samples, 99.88%)</title><rect x="10.0" y="293" width="1178.6" height="15.0" fill="rgb(238,16,11)" rx="2" ry="2" />
<text  x="13.00" y="303.5" >[unknown]</text>
</g>
<g >
<title>page_remove_rmap (1 samples, 0.02%)</title><rect x="1188.6" y="133" width="0.2" height="15.0" fill="rgb(221,8,17)" rx="2" ry="2" />
<text  x="1191.59" y="143.5" ></text>
</g>
<g >
<title>__softirqentry_text_start (1 samples, 0.02%)</title><rect x="61.7" y="197" width="0.2" height="15.0" fill="rgb(253,178,9)" rx="2" ry="2" />
<text  x="64.66" y="207.5" ></text>
</g>
<g >
<title>exit_mmap (7 samples, 0.12%)</title><rect x="1188.6" y="197" width="1.4" height="15.0" fill="rgb(243,138,35)" rx="2" ry="2" />
<text  x="1191.59" y="207.5" ></text>
</g>
<g >
<title>prepare_exit_to_usermode (1 samples, 0.02%)</title><rect x="1187.6" y="229" width="0.2" height="15.0" fill="rgb(234,7,54)" rx="2" ry="2" />
<text  x="1190.58" y="239.5" ></text>
</g>
<g >
<title>do_exit (7 samples, 0.12%)</title><rect x="1188.6" y="229" width="1.4" height="15.0" fill="rgb(233,219,3)" rx="2" ry="2" />
<text  x="1191.59" y="239.5" ></text>
</g>
<g >
<title>__random_r (151 samples, 2.58%)</title><rect x="62.1" y="261" width="30.4" height="15.0" fill="rgb(228,49,38)" rx="2" ry="2" />
<text  x="65.07" y="271.5" >__..</text>
</g>
</g>
</svg>
